<?xml version="1.0" encoding="UTF-8" standalone="no"?>
<!DOCTYPE svg PUBLIC "-//W3C//DTD SVG 1.1//EN" "http://www.w3.org/Graphics/SVG/1.1/DTD/svg11.dtd">
<svg width="100%" height="100%" viewBox="0 0 650 999" version="1.1" xmlns="http://www.w3.org/2000/svg" xmlns:xlink="http://www.w3.org/1999/xlink" xml:space="preserve" xmlns:serif="http://www.serif.com/" style="fill-rule:evenodd;clip-rule:evenodd;stroke-linecap:round;stroke-miterlimit:8;">
    <g transform="matrix(1,0,0,1,-181.022812,-281.688079)">
        <g transform="matrix(0.989364,0,0,1.471586,114.640943,153.976824)">
            <g transform="matrix(1.059054,0,0,0.752615,-18.032607,32.569216)">
                <g transform="matrix(1.161902,0,0,1.161902,-9.555704,-10.240863)">
                    <path d="M132.3,147.64C138.1,144.38 137.41,134.35 135.98,127.01C135.8,126.12 135.61,125.28 135.43,124.5C136.16,124.82 136.96,125.14 137.79,125.44C144.79,128.06 154.59,130.42 158.76,125.24C160,134.6 151.28,136.57 139.63,129.46C144.71,142.13 141.33,150.41 132.3,147.64Z" style="fill:rgb(58,89,14);fill-rule:nonzero;"/>
                    <g transform="matrix(1,0,0,1,-2.213431,-3.807101)">
                        <path d="M168.46,137.14C162.66,140.4 163.35,150.43 164.78,157.77C164.96,158.65 165.15,159.5 165.33,160.27C164.6,159.96 163.8,159.64 162.98,159.33C155.97,156.71 146.17,154.36 142.01,159.54C140.76,150.18 149.48,148.21 161.13,155.31C156.05,142.65 159.43,134.37 168.46,137.14Z" style="fill:rgb(58,89,14);fill-rule:nonzero;"/>
                    </g>
                    <path d="M150.15,137.21C153.27,139.74 154.22,145.94 154.22,145.94C154.22,145.94 148.26,143.99 146.28,140.49C144.8,137.87 147.81,135.32 150.15,137.21Z" style="fill:rgb(58,89,14);fill-rule:nonzero;"/>
                </g>
                <g>
                    <g transform="matrix(1.120592,0,0,1.03633,-16.514891,-9.022056)">
                        <path d="M118.47,150.41C111.44,148.54 128.74,156.99 131.15,169.14C133.34,180.2 125.14,191.15 117.1,198.81C114.41,201.37 109.11,204.99 105.17,203.49C102.9,202.61 100.49,199.36 99.3,195.77C99.06,195.06 98.87,191.37 98.66,191.54C97.01,192.85 97.19,196.79 97.24,198.85C97.31,201.49 98.54,204.64 100.6,206.65C101.51,207.54 103.16,209.32 103.59,210.23C104.08,211.25 101.71,214.82 101.25,215.78C96.81,224.95 92.21,237.33 95.34,248.17C95.76,249.6 97.6,241.75 100.04,234.91C101.59,230.57 103.11,226.55 103.67,225.59C103.95,225.09 106.7,218.32 108.6,215.45C112.21,209.99 118.14,204.99 120.26,202.35C127.52,195.31 133.83,187.15 136.22,177.57C137.98,170.49 136.69,162.16 130.91,156.56C129.76,155.45 128.46,154.47 127.07,153.64C125.77,152.86 124.38,152.2 122.94,151.66C121.49,151.12 119.96,150.81 118.47,150.41Z" style="fill:rgb(58,89,14);fill-rule:nonzero;"/>
                    </g>
                    <g transform="matrix(0,1.076058,1.047129,-0,3.355005,-16.353337)">
                        <path d="M118.47,150.41C111.44,148.54 128.74,156.99 131.15,169.14C133.34,180.2 125.14,191.15 117.1,198.81C114.41,201.37 109.11,204.99 105.17,203.49C102.9,202.61 100.49,199.36 99.3,195.77C99.06,195.06 98.87,191.37 98.66,191.54C97.01,192.85 97.19,196.79 97.24,198.85C97.31,201.49 98.54,204.64 100.6,206.65C101.51,207.54 103.16,209.32 103.59,210.23C104.08,211.25 101.71,214.82 101.25,215.78C96.81,224.95 92.21,237.33 95.34,248.17C95.76,249.6 97.6,241.75 100.04,234.91C101.59,230.57 103.11,226.55 103.67,225.59C103.95,225.09 106.7,218.32 108.6,215.45C112.21,209.99 118.14,204.99 120.26,202.35C127.52,195.31 133.83,187.15 136.22,177.57C137.98,170.49 136.69,162.16 130.91,156.56C129.76,155.45 128.46,154.47 127.07,153.64C125.77,152.86 124.38,152.2 122.94,151.66C121.49,151.12 119.96,150.81 118.47,150.41Z" style="fill:rgb(58,89,14);fill-rule:nonzero;"/>
                    </g>
                </g>
                <g transform="matrix(1.070999,0.032585,-0.070864,1.052771,0.40359,-17.943542)">
                    <path d="M203.21,133.06C202.13,135.25 200.31,137.09 199.41,139.36C198.65,139.16 197.95,138.52 197.11,138.31C196.16,138.07 195.15,138.08 194.19,138.3C190.58,139.13 188.72,142.28 188.5,145.39C188.46,145.93 189.1,146.2 189.54,145.81C192.23,143.41 194.45,147.36 194.74,149.18C195.07,151.29 195.01,153.46 194.89,155.59C194.64,159.82 193.09,163.6 191.05,167.2C190.31,168.22 174.96,181.07 173.9,181.74C170.16,183.53 166.29,184.82 162.05,184.79C159.92,184.77 157.75,184.68 155.67,184.21C153.87,183.8 150.08,181.32 152.65,178.8C153.08,178.38 152.85,177.73 152.31,177.73C149.19,177.73 145.92,179.38 144.85,182.93C144.56,183.87 144.49,184.88 144.66,185.85C144.82,186.69 145.41,187.44 145.55,188.21C143.23,188.96 141.27,190.65 139.01,191.58C137.91,192.04 136.74,193.32 138.34,194.03C145.75,197.31 153.83,194.42 161.19,192.58C161.96,192.39 164.93,191.25 165.59,191.69C166.19,192.08 166.45,194.3 166.96,194.99C168.11,196.56 170,197.73 171.91,198.08C173.4,198.35 175.02,198.08 176.23,197.15C176.38,197.03 176.54,196.89 176.6,196.71C176.75,196.21 176.16,195.85 175.74,195.53C168.13,189.62 199.03,162.11 204.69,169.97C204.99,170.4 205.29,171.03 205.8,170.9C206,170.86 206.15,170.71 206.28,170.56C207.28,169.42 207.66,167.82 207.49,166.32C207.27,164.39 206.23,162.42 204.74,161.17C204.08,160.62 201.88,160.2 201.53,159.58C201.14,158.89 202.48,156.01 202.72,155.25C205.05,148.03 208.48,140.16 205.7,132.54C205.1,130.9 203.74,131.99 203.21,133.06Z" style="fill:rgb(58,89,14);fill-rule:nonzero;"/>
                </g>
            </g>
            <g transform="matrix(1,0,0,1,-22.97522,-18.154721)">
                <g transform="matrix(1.70381,0,0,1,-79.713902,0.097624)">
                    <path d="M109.97,249.71C109.05,249.71 108.31,250.45 108.31,251.37L108.31,346.44C108.31,347.36 109.05,348.1 109.97,348.1C110.89,348.1 111.63,347.36 111.63,346.44L111.63,251.37C111.63,250.45 110.89,249.71 109.97,249.71Z" style="fill:rgb(58,89,14);fill-rule:nonzero;"/>
                </g>
                <g transform="matrix(1.793379,0,0,1,-77.093694,21.183299)">
                    <path d="M109.97,249.71C109.05,249.71 108.31,250.45 108.31,251.37L108.31,346.44C108.31,347.36 109.05,348.1 109.97,348.1C110.89,348.1 111.63,347.36 111.63,346.44C111.14,315.48 110.97,284.05 111.63,251.37C111.63,250.45 110.89,249.71 109.97,249.71Z" style="fill:rgb(58,89,14);fill-rule:nonzero;"/>
                </g>
            </g>
            <g transform="matrix(0,0.672311,1.487407,-0,-92.4924,28.606861)">
                <g transform="matrix(1.70381,-0,-0,0.49756,-79.713902,125.55944)">
                    <path d="M109.97,249.71C109.05,249.71 108.31,250.45 108.31,251.37L108.31,346.44C108.31,347.36 109.05,348.1 109.97,348.1C110.89,348.1 111.63,347.36 111.63,346.44L111.63,251.37C111.63,250.45 110.89,249.71 109.97,249.71Z" style="fill:rgb(58,89,14);fill-rule:nonzero;"/>
                </g>
                <g transform="matrix(1.70381,-0,-0,0.49756,-66.703447,142.616234)">
                    <path d="M109.97,249.71C109.05,249.71 108.31,250.45 108.31,251.37L108.31,346.44C108.31,347.36 109.05,348.1 109.97,348.1C110.89,348.1 111.63,347.36 111.63,346.44L111.63,251.37C111.63,250.45 110.89,249.71 109.97,249.71Z" style="fill:rgb(58,89,14);fill-rule:nonzero;"/>
                </g>
            </g>
        </g>
        <g transform="matrix(1,0,0,1.073818,1.571299,-25.833517)">
            <ellipse cx="293.46" cy="322.01" rx="6.06" ry="5.5" style="fill:rgb(58,89,14);"/>
        </g>
        <g transform="matrix(0.682073,0,0,0.751673,107.399959,70.223781)">
            <ellipse cx="293.46" cy="322.01" rx="6.06" ry="5.5" style="fill:rgb(58,89,14);"/>
        </g>
        <g transform="matrix(0.682073,0,0,0.751673,84.593686,87.940316)">
            <ellipse cx="293.46" cy="322.01" rx="6.06" ry="5.5" style="fill:rgb(58,89,14);"/>
        </g>
        <g transform="matrix(0.873389,-0.487024,0.522975,0.937861,-210.843491,239.346286)">
            <ellipse cx="293.46" cy="322.01" rx="6.06" ry="5.5" style="fill:rgb(58,89,14);"/>
        </g>
        <g transform="matrix(0.659893,-0.172527,0.190131,0.727229,-30.777926,204.268242)">
            <ellipse cx="293.46" cy="322.01" rx="6.06" ry="5.5" style="fill:rgb(58,89,14);"/>
        </g>
        <g transform="matrix(0.659893,-0.172527,0.190131,0.727229,-48.361265,227.177366)">
            <ellipse cx="293.46" cy="322.01" rx="6.06" ry="5.5" style="fill:rgb(58,89,14);"/>
        </g>
    </g>
    <g transform="matrix(-1,0,0,1,825.350838,-281.688079)">
        <g transform="matrix(0.989364,0,0,1.471586,114.640943,153.976824)">
            <g transform="matrix(1.059054,0,0,0.752615,-18.032607,32.569216)">
                <g transform="matrix(1.161902,0,0,1.161902,-9.555704,-10.240863)">
                    <path d="M132.3,147.64C138.1,144.38 137.41,134.35 135.98,127.01C135.8,126.12 135.61,125.28 135.43,124.5C136.16,124.82 136.96,125.14 137.79,125.44C144.79,128.06 154.59,130.42 158.76,125.24C160,134.6 151.28,136.57 139.63,129.46C144.71,142.13 141.33,150.41 132.3,147.64Z" style="fill:rgb(58,89,14);fill-rule:nonzero;"/>
                    <g transform="matrix(1,0,0,1,-2.213431,-3.807101)">
                        <path d="M168.46,137.14C162.66,140.4 163.35,150.43 164.78,157.77C164.96,158.65 165.15,159.5 165.33,160.27C164.6,159.96 163.8,159.64 162.98,159.33C155.97,156.71 146.17,154.36 142.01,159.54C140.76,150.18 149.48,148.21 161.13,155.31C156.05,142.65 159.43,134.37 168.46,137.14Z" style="fill:rgb(58,89,14);fill-rule:nonzero;"/>
                    </g>
                    <path d="M150.15,137.21C153.27,139.74 154.22,145.94 154.22,145.94C154.22,145.94 148.26,143.99 146.28,140.49C144.8,137.87 147.81,135.32 150.15,137.21Z" style="fill:rgb(58,89,14);fill-rule:nonzero;"/>
                </g>
                <g>
                    <g transform="matrix(1.120592,0,0,1.03633,-16.514891,-9.022056)">
                        <path d="M118.47,150.41C111.44,148.54 128.74,156.99 131.15,169.14C133.34,180.2 125.14,191.15 117.1,198.81C114.41,201.37 109.11,204.99 105.17,203.49C102.9,202.61 100.49,199.36 99.3,195.77C99.06,195.06 98.87,191.37 98.66,191.54C97.01,192.85 97.19,196.79 97.24,198.85C97.31,201.49 98.54,204.64 100.6,206.65C101.51,207.54 103.16,209.32 103.59,210.23C104.08,211.25 101.71,214.82 101.25,215.78C96.81,224.95 92.21,237.33 95.34,248.17C95.76,249.6 97.6,241.75 100.04,234.91C101.59,230.57 103.11,226.55 103.67,225.59C103.95,225.09 106.7,218.32 108.6,215.45C112.21,209.99 118.14,204.99 120.26,202.35C127.52,195.31 133.83,187.15 136.22,177.57C137.98,170.49 136.69,162.16 130.91,156.56C129.76,155.45 128.46,154.47 127.07,153.64C125.77,152.86 124.38,152.2 122.94,151.66C121.49,151.12 119.96,150.81 118.47,150.41Z" style="fill:rgb(58,89,14);fill-rule:nonzero;"/>
                    </g>
                    <g transform="matrix(0,1.076058,1.047129,-0,3.355005,-16.353337)">
                        <path d="M118.47,150.41C111.44,148.54 128.74,156.99 131.15,169.14C133.34,180.2 125.14,191.15 117.1,198.81C114.41,201.37 109.11,204.99 105.17,203.49C102.9,202.61 100.49,199.36 99.3,195.77C99.06,195.06 98.87,191.37 98.66,191.54C97.01,192.85 97.19,196.79 97.24,198.85C97.31,201.49 98.54,204.64 100.6,206.65C101.51,207.54 103.16,209.32 103.59,210.23C104.08,211.25 101.71,214.82 101.25,215.78C96.81,224.95 92.21,237.33 95.34,248.17C95.76,249.6 97.6,241.75 100.04,234.91C101.59,230.57 103.11,226.55 103.67,225.59C103.95,225.09 106.7,218.32 108.6,215.45C112.21,209.99 118.14,204.99 120.26,202.35C127.52,195.31 133.83,187.15 136.22,177.57C137.98,170.49 136.69,162.16 130.91,156.56C129.76,155.45 128.46,154.47 127.07,153.64C125.77,152.86 124.38,152.2 122.94,151.66C121.49,151.12 119.96,150.81 118.47,150.41Z" style="fill:rgb(58,89,14);fill-rule:nonzero;"/>
                    </g>
                </g>
                <g transform="matrix(1.070999,0.032585,-0.070864,1.052771,0.40359,-17.943542)">
                    <path d="M203.21,133.06C202.13,135.25 200.31,137.09 199.41,139.36C198.65,139.16 197.95,138.52 197.11,138.31C196.16,138.07 195.15,138.08 194.19,138.3C190.58,139.13 188.72,142.28 188.5,145.39C188.46,145.93 189.1,146.2 189.54,145.81C192.23,143.41 194.45,147.36 194.74,149.18C195.07,151.29 195.01,153.46 194.89,155.59C194.64,159.82 193.09,163.6 191.05,167.2C190.31,168.22 174.96,181.07 173.9,181.74C170.16,183.53 166.29,184.82 162.05,184.79C159.92,184.77 157.75,184.68 155.67,184.21C153.87,183.8 150.08,181.32 152.65,178.8C153.08,178.38 152.85,177.73 152.31,177.73C149.19,177.73 145.92,179.38 144.85,182.93C144.56,183.87 144.49,184.88 144.66,185.85C144.82,186.69 145.41,187.44 145.55,188.21C143.23,188.96 141.27,190.65 139.01,191.58C137.91,192.04 136.74,193.32 138.34,194.03C145.75,197.31 153.83,194.42 161.19,192.58C161.96,192.39 164.93,191.25 165.59,191.69C166.19,192.08 166.45,194.3 166.96,194.99C168.11,196.56 170,197.73 171.91,198.08C173.4,198.35 175.02,198.08 176.23,197.15C176.38,197.03 176.54,196.89 176.6,196.71C176.75,196.21 176.16,195.85 175.74,195.53C168.13,189.62 199.03,162.11 204.69,169.97C204.99,170.4 205.29,171.03 205.8,170.9C206,170.86 206.15,170.71 206.28,170.56C207.28,169.42 207.66,167.82 207.49,166.32C207.27,164.39 206.23,162.42 204.74,161.17C204.08,160.62 201.88,160.2 201.53,159.58C201.14,158.89 202.48,156.01 202.72,155.25C205.05,148.03 208.48,140.16 205.7,132.54C205.1,130.9 203.74,131.99 203.21,133.06Z" style="fill:rgb(58,89,14);fill-rule:nonzero;"/>
                </g>
            </g>
            <g transform="matrix(1,0,0,1,-22.97522,-18.154721)">
                <g transform="matrix(1.70381,0,0,1,-79.713902,0.097624)">
                    <path d="M109.97,249.71C109.05,249.71 108.31,250.45 108.31,251.37L108.31,346.44C108.31,347.36 109.05,348.1 109.97,348.1C110.89,348.1 111.63,347.36 111.63,346.44L111.63,251.37C111.63,250.45 110.89,249.71 109.97,249.71Z" style="fill:rgb(58,89,14);fill-rule:nonzero;"/>
                </g>
                <g transform="matrix(1.793379,0,0,1,-77.093694,21.183299)">
                    <path d="M109.97,249.71C109.05,249.71 108.31,250.45 108.31,251.37L108.31,346.44C108.31,347.36 109.05,348.1 109.97,348.1C110.89,348.1 111.63,347.36 111.63,346.44C111.14,315.48 110.97,284.05 111.63,251.37C111.63,250.45 110.89,249.71 109.97,249.71Z" style="fill:rgb(58,89,14);fill-rule:nonzero;"/>
                </g>
            </g>
            <g transform="matrix(0,0.672311,1.487407,-0,-92.4924,28.606861)">
                <g transform="matrix(1.70381,-0,-0,0.49756,-79.713902,125.55944)">
                    <path d="M109.97,249.71C109.05,249.71 108.31,250.45 108.31,251.37L108.31,346.44C108.31,347.36 109.05,348.1 109.97,348.1C110.89,348.1 111.63,347.36 111.63,346.44L111.63,251.37C111.63,250.45 110.89,249.71 109.97,249.71Z" style="fill:rgb(58,89,14);fill-rule:nonzero;"/>
                </g>
                <g transform="matrix(1.70381,-0,-0,0.49756,-66.703447,142.616234)">
                    <path d="M109.97,249.71C109.05,249.71 108.31,250.45 108.31,251.37L108.31,346.44C108.31,347.36 109.05,348.1 109.97,348.1C110.89,348.1 111.63,347.36 111.63,346.44L111.63,251.37C111.63,250.45 110.89,249.71 109.97,249.71Z" style="fill:rgb(58,89,14);fill-rule:nonzero;"/>
                </g>
            </g>
        </g>
        <g transform="matrix(1,0,0,1.073818,1.571299,-25.833517)">
            <ellipse cx="293.46" cy="322.01" rx="6.06" ry="5.5" style="fill:rgb(58,89,14);"/>
        </g>
        <g transform="matrix(0.682073,0,0,0.751673,107.399959,70.223781)">
            <ellipse cx="293.46" cy="322.01" rx="6.06" ry="5.5" style="fill:rgb(58,89,14);"/>
        </g>
        <g transform="matrix(0.682073,0,0,0.751673,84.593686,87.940316)">
            <ellipse cx="293.46" cy="322.01" rx="6.06" ry="5.5" style="fill:rgb(58,89,14);"/>
        </g>
        <g transform="matrix(0.873389,-0.487024,0.522975,0.937861,-210.843491,239.346286)">
            <ellipse cx="293.46" cy="322.01" rx="6.06" ry="5.5" style="fill:rgb(58,89,14);"/>
        </g>
        <g transform="matrix(0.659893,-0.172527,0.190131,0.727229,-30.777926,204.268242)">
            <ellipse cx="293.46" cy="322.01" rx="6.06" ry="5.5" style="fill:rgb(58,89,14);"/>
        </g>
        <g transform="matrix(0.659893,-0.172527,0.190131,0.727229,-48.361265,227.177366)">
            <ellipse cx="293.46" cy="322.01" rx="6.06" ry="5.5" style="fill:rgb(58,89,14);"/>
        </g>
    </g>
    <g transform="matrix(1,0,0,-1,-181.022812,1279.464441)">
        <g transform="matrix(0.989364,0,0,1.471586,114.640943,153.976824)">
            <g transform="matrix(1.059054,0,0,0.752615,-18.032607,32.569216)">
                <g transform="matrix(1.161902,0,0,1.161902,-9.555704,-10.240863)">
                    <path d="M132.3,147.64C138.1,144.38 137.41,134.35 135.98,127.01C135.8,126.12 135.61,125.28 135.43,124.5C136.16,124.82 136.96,125.14 137.79,125.44C144.79,128.06 154.59,130.42 158.76,125.24C160,134.6 151.28,136.57 139.63,129.46C144.71,142.13 141.33,150.41 132.3,147.64Z" style="fill:rgb(58,89,14);fill-rule:nonzero;"/>
                    <g transform="matrix(1,0,0,1,-2.213431,-3.807101)">
                        <path d="M168.46,137.14C162.66,140.4 163.35,150.43 164.78,157.77C164.96,158.65 165.15,159.5 165.33,160.27C164.6,159.96 163.8,159.64 162.98,159.33C155.97,156.71 146.17,154.36 142.01,159.54C140.76,150.18 149.48,148.21 161.13,155.31C156.05,142.65 159.43,134.37 168.46,137.14Z" style="fill:rgb(58,89,14);fill-rule:nonzero;"/>
                    </g>
                    <path d="M150.15,137.21C153.27,139.74 154.22,145.94 154.22,145.94C154.22,145.94 148.26,143.99 146.28,140.49C144.8,137.87 147.81,135.32 150.15,137.21Z" style="fill:rgb(58,89,14);fill-rule:nonzero;"/>
                </g>
                <g>
                    <g transform="matrix(1.120592,0,0,1.03633,-16.514891,-9.022056)">
                        <path d="M118.47,150.41C111.44,148.54 128.74,156.99 131.15,169.14C133.34,180.2 125.14,191.15 117.1,198.81C114.41,201.37 109.11,204.99 105.17,203.49C102.9,202.61 100.49,199.36 99.3,195.77C99.06,195.06 98.87,191.37 98.66,191.54C97.01,192.85 97.19,196.79 97.24,198.85C97.31,201.49 98.54,204.64 100.6,206.65C101.51,207.54 103.16,209.32 103.59,210.23C104.08,211.25 101.71,214.82 101.25,215.78C96.81,224.95 92.21,237.33 95.34,248.17C95.76,249.6 97.6,241.75 100.04,234.91C101.59,230.57 103.11,226.55 103.67,225.59C103.95,225.09 106.7,218.32 108.6,215.45C112.21,209.99 118.14,204.99 120.26,202.35C127.52,195.31 133.83,187.15 136.22,177.57C137.98,170.49 136.69,162.16 130.91,156.56C129.76,155.45 128.46,154.47 127.07,153.64C125.77,152.86 124.38,152.2 122.94,151.66C121.49,151.12 119.96,150.81 118.47,150.41Z" style="fill:rgb(58,89,14);fill-rule:nonzero;"/>
                    </g>
                    <g transform="matrix(0,1.076058,1.047129,-0,3.355005,-16.353337)">
                        <path d="M118.47,150.41C111.44,148.54 128.74,156.99 131.15,169.14C133.34,180.2 125.14,191.15 117.1,198.81C114.41,201.37 109.11,204.99 105.17,203.49C102.9,202.61 100.49,199.36 99.3,195.77C99.06,195.06 98.87,191.37 98.66,191.54C97.01,192.85 97.19,196.79 97.24,198.85C97.31,201.49 98.54,204.64 100.6,206.65C101.51,207.54 103.16,209.32 103.59,210.23C104.08,211.25 101.71,214.82 101.25,215.78C96.81,224.95 92.21,237.33 95.34,248.17C95.76,249.6 97.6,241.75 100.04,234.91C101.59,230.57 103.11,226.55 103.67,225.59C103.95,225.09 106.7,218.32 108.6,215.45C112.21,209.99 118.14,204.99 120.26,202.35C127.52,195.31 133.83,187.15 136.22,177.57C137.98,170.49 136.69,162.16 130.91,156.56C129.76,155.45 128.46,154.47 127.07,153.64C125.77,152.86 124.38,152.2 122.94,151.66C121.49,151.12 119.96,150.81 118.47,150.41Z" style="fill:rgb(58,89,14);fill-rule:nonzero;"/>
                    </g>
                </g>
                <g transform="matrix(1.070999,0.032585,-0.070864,1.052771,0.40359,-17.943542)">
                    <path d="M203.21,133.06C202.13,135.25 200.31,137.09 199.41,139.36C198.65,139.16 197.95,138.52 197.11,138.31C196.16,138.07 195.15,138.08 194.19,138.3C190.58,139.13 188.72,142.28 188.5,145.39C188.46,145.93 189.1,146.2 189.54,145.81C192.23,143.41 194.45,147.36 194.74,149.18C195.07,151.29 195.01,153.46 194.89,155.59C194.64,159.82 193.09,163.6 191.05,167.2C190.31,168.22 174.96,181.07 173.9,181.74C170.16,183.53 166.29,184.82 162.05,184.79C159.92,184.77 157.75,184.68 155.67,184.21C153.87,183.8 150.08,181.32 152.65,178.8C153.08,178.38 152.85,177.73 152.31,177.73C149.19,177.73 145.92,179.38 144.85,182.93C144.56,183.87 144.49,184.88 144.66,185.85C144.82,186.69 145.41,187.44 145.55,188.21C143.23,188.96 141.27,190.65 139.01,191.58C137.91,192.04 136.74,193.32 138.34,194.03C145.75,197.31 153.83,194.42 161.19,192.58C161.96,192.39 164.93,191.25 165.59,191.69C166.19,192.08 166.45,194.3 166.96,194.99C168.11,196.56 170,197.73 171.91,198.08C173.4,198.35 175.02,198.08 176.23,197.15C176.38,197.03 176.54,196.89 176.6,196.71C176.75,196.21 176.16,195.85 175.74,195.53C168.13,189.62 199.03,162.11 204.69,169.97C204.99,170.4 205.29,171.03 205.8,170.9C206,170.86 206.15,170.71 206.28,170.56C207.28,169.42 207.66,167.82 207.49,166.32C207.27,164.39 206.23,162.42 204.74,161.17C204.08,160.62 201.88,160.2 201.53,159.58C201.14,158.89 202.48,156.01 202.72,155.25C205.05,148.03 208.48,140.16 205.7,132.54C205.1,130.9 203.74,131.99 203.21,133.06Z" style="fill:rgb(58,89,14);fill-rule:nonzero;"/>
                </g>
            </g>
            <g transform="matrix(1,0,0,1,-22.97522,-18.154721)">
                <g transform="matrix(1.70381,0,0,1,-79.713902,0.097624)">
                    <path d="M109.97,249.71C109.05,249.71 108.31,250.45 108.31,251.37L108.31,346.44C108.31,347.36 109.05,348.1 109.97,348.1C110.89,348.1 111.63,347.36 111.63,346.44L111.63,251.37C111.63,250.45 110.89,249.71 109.97,249.71Z" style="fill:rgb(58,89,14);fill-rule:nonzero;"/>
                </g>
                <g transform="matrix(1.793379,0,0,1,-77.093694,21.183299)">
                    <path d="M109.97,249.71C109.05,249.71 108.31,250.45 108.31,251.37L108.31,346.44C108.31,347.36 109.05,348.1 109.97,348.1C110.89,348.1 111.63,347.36 111.63,346.44C111.14,315.48 110.97,284.05 111.63,251.37C111.63,250.45 110.89,249.71 109.97,249.71Z" style="fill:rgb(58,89,14);fill-rule:nonzero;"/>
                </g>
            </g>
            <g transform="matrix(0,0.672311,1.487407,-0,-92.4924,28.606861)">
                <g transform="matrix(1.70381,-0,-0,0.49756,-79.713902,125.55944)">
                    <path d="M109.97,249.71C109.05,249.71 108.31,250.45 108.31,251.37L108.31,346.44C108.31,347.36 109.05,348.1 109.97,348.1C110.89,348.1 111.63,347.36 111.63,346.44L111.63,251.37C111.63,250.45 110.89,249.71 109.97,249.71Z" style="fill:rgb(58,89,14);fill-rule:nonzero;"/>
                </g>
                <g transform="matrix(1.70381,-0,-0,0.49756,-66.703447,142.616234)">
                    <path d="M109.97,249.71C109.05,249.71 108.31,250.45 108.31,251.37L108.31,346.44C108.31,347.36 109.05,348.1 109.97,348.1C110.89,348.1 111.63,347.36 111.63,346.44L111.63,251.37C111.63,250.45 110.89,249.71 109.97,249.71Z" style="fill:rgb(58,89,14);fill-rule:nonzero;"/>
                </g>
            </g>
        </g>
        <g transform="matrix(1,0,0,1.073818,1.571299,-25.833517)">
            <ellipse cx="293.46" cy="322.01" rx="6.06" ry="5.5" style="fill:rgb(58,89,14);"/>
        </g>
        <g transform="matrix(0.682073,0,0,0.751673,107.399959,70.223781)">
            <ellipse cx="293.46" cy="322.01" rx="6.06" ry="5.5" style="fill:rgb(58,89,14);"/>
        </g>
        <g transform="matrix(0.682073,0,0,0.751673,84.593686,87.940316)">
            <ellipse cx="293.46" cy="322.01" rx="6.06" ry="5.5" style="fill:rgb(58,89,14);"/>
        </g>
        <g transform="matrix(0.873389,-0.487024,0.522975,0.937861,-210.843491,239.346286)">
            <ellipse cx="293.46" cy="322.01" rx="6.06" ry="5.5" style="fill:rgb(58,89,14);"/>
        </g>
        <g transform="matrix(0.659893,-0.172527,0.190131,0.727229,-30.777926,204.268242)">
            <ellipse cx="293.46" cy="322.01" rx="6.06" ry="5.5" style="fill:rgb(58,89,14);"/>
        </g>
        <g transform="matrix(0.659893,-0.172527,0.190131,0.727229,-48.361265,227.177366)">
            <ellipse cx="293.46" cy="322.01" rx="6.06" ry="5.5" style="fill:rgb(58,89,14);"/>
        </g>
    </g>
    <g transform="matrix(-1,0,0,-1,825.350838,1279.464441)">
        <g transform="matrix(0.989364,0,0,1.471586,114.640943,153.976824)">
            <g transform="matrix(1.059054,0,0,0.752615,-18.032607,32.569216)">
                <g transform="matrix(1.161902,0,0,1.161902,-9.555704,-10.240863)">
                    <path d="M132.3,147.64C138.1,144.38 137.41,134.35 135.98,127.01C135.8,126.12 135.61,125.28 135.43,124.5C136.16,124.82 136.96,125.14 137.79,125.44C144.79,128.06 154.59,130.42 158.76,125.24C160,134.6 151.28,136.57 139.63,129.46C144.71,142.13 141.33,150.41 132.3,147.64Z" style="fill:rgb(58,89,14);fill-rule:nonzero;"/>
                    <g transform="matrix(1,0,0,1,-2.213431,-3.807101)">
                        <path d="M168.46,137.14C162.66,140.4 163.35,150.43 164.78,157.77C164.96,158.65 165.15,159.5 165.33,160.27C164.6,159.96 163.8,159.64 162.98,159.33C155.97,156.71 146.17,154.36 142.01,159.54C140.76,150.18 149.48,148.21 161.13,155.31C156.05,142.65 159.43,134.37 168.46,137.14Z" style="fill:rgb(58,89,14);fill-rule:nonzero;"/>
                    </g>
                    <path d="M150.15,137.21C153.27,139.74 154.22,145.94 154.22,145.94C154.22,145.94 148.26,143.99 146.28,140.49C144.8,137.87 147.81,135.32 150.15,137.21Z" style="fill:rgb(58,89,14);fill-rule:nonzero;"/>
                </g>
                <g>
                    <g transform="matrix(1.120592,0,0,1.03633,-16.514891,-9.022056)">
                        <path d="M118.47,150.41C111.44,148.54 128.74,156.99 131.15,169.14C133.34,180.2 125.14,191.15 117.1,198.81C114.41,201.37 109.11,204.99 105.17,203.49C102.9,202.61 100.49,199.36 99.3,195.77C99.06,195.06 98.87,191.37 98.66,191.54C97.01,192.85 97.19,196.79 97.24,198.85C97.31,201.49 98.54,204.64 100.6,206.65C101.51,207.54 103.16,209.32 103.59,210.23C104.08,211.25 101.71,214.82 101.25,215.78C96.81,224.95 92.21,237.33 95.34,248.17C95.76,249.6 97.6,241.75 100.04,234.91C101.59,230.57 103.11,226.55 103.67,225.59C103.95,225.09 106.7,218.32 108.6,215.45C112.21,209.99 118.14,204.99 120.26,202.35C127.52,195.31 133.83,187.15 136.22,177.57C137.98,170.49 136.69,162.16 130.91,156.56C129.76,155.45 128.46,154.47 127.07,153.64C125.77,152.86 124.38,152.2 122.94,151.66C121.49,151.12 119.96,150.81 118.47,150.41Z" style="fill:rgb(58,89,14);fill-rule:nonzero;"/>
                    </g>
                    <g transform="matrix(0,1.076058,1.047129,-0,3.355005,-16.353337)">
                        <path d="M118.47,150.41C111.44,148.54 128.74,156.99 131.15,169.14C133.34,180.2 125.14,191.15 117.1,198.81C114.41,201.37 109.11,204.99 105.17,203.49C102.9,202.61 100.49,199.36 99.3,195.77C99.06,195.06 98.87,191.37 98.66,191.54C97.01,192.85 97.19,196.79 97.24,198.85C97.31,201.49 98.54,204.64 100.6,206.65C101.51,207.54 103.16,209.32 103.59,210.23C104.08,211.25 101.71,214.82 101.25,215.78C96.81,224.95 92.21,237.33 95.34,248.17C95.76,249.6 97.6,241.75 100.04,234.91C101.59,230.57 103.11,226.55 103.67,225.59C103.95,225.09 106.7,218.32 108.6,215.45C112.21,209.99 118.14,204.99 120.26,202.35C127.52,195.31 133.83,187.15 136.22,177.57C137.98,170.49 136.69,162.16 130.91,156.56C129.76,155.45 128.46,154.47 127.07,153.64C125.77,152.86 124.38,152.2 122.94,151.66C121.49,151.12 119.96,150.81 118.47,150.41Z" style="fill:rgb(58,89,14);fill-rule:nonzero;"/>
                    </g>
                </g>
                <g transform="matrix(1.070999,0.032585,-0.070864,1.052771,0.40359,-17.943542)">
                    <path d="M203.21,133.06C202.13,135.25 200.31,137.09 199.41,139.36C198.65,139.16 197.95,138.52 197.11,138.31C196.16,138.07 195.15,138.08 194.19,138.3C190.58,139.13 188.72,142.28 188.5,145.39C188.46,145.93 189.1,146.2 189.54,145.81C192.23,143.41 194.45,147.36 194.74,149.18C195.07,151.29 195.01,153.46 194.89,155.59C194.64,159.82 193.09,163.6 191.05,167.2C190.31,168.22 174.96,181.07 173.9,181.74C170.16,183.53 166.29,184.82 162.05,184.79C159.92,184.77 157.75,184.68 155.67,184.21C153.87,183.8 150.08,181.32 152.65,178.8C153.08,178.38 152.85,177.73 152.31,177.73C149.19,177.73 145.92,179.38 144.85,182.93C144.56,183.87 144.49,184.88 144.66,185.85C144.82,186.69 145.41,187.44 145.55,188.21C143.23,188.96 141.27,190.65 139.01,191.58C137.91,192.04 136.74,193.32 138.34,194.03C145.75,197.31 153.83,194.42 161.19,192.58C161.96,192.39 164.93,191.25 165.59,191.69C166.19,192.08 166.45,194.3 166.96,194.99C168.11,196.56 170,197.73 171.91,198.08C173.4,198.35 175.02,198.08 176.23,197.15C176.38,197.03 176.54,196.89 176.6,196.71C176.75,196.21 176.16,195.85 175.74,195.53C168.13,189.62 199.03,162.11 204.69,169.97C204.99,170.4 205.29,171.03 205.8,170.9C206,170.86 206.15,170.71 206.28,170.56C207.28,169.42 207.66,167.82 207.49,166.32C207.27,164.39 206.23,162.42 204.74,161.17C204.08,160.62 201.88,160.2 201.53,159.58C201.14,158.89 202.48,156.01 202.72,155.25C205.05,148.03 208.48,140.16 205.7,132.54C205.1,130.9 203.74,131.99 203.21,133.06Z" style="fill:rgb(58,89,14);fill-rule:nonzero;"/>
                </g>
            </g>
            <g transform="matrix(1,0,0,1,-22.97522,-18.154721)">
                <g transform="matrix(1.70381,0,0,1,-79.713902,0.097624)">
                    <path d="M109.97,249.71C109.05,249.71 108.31,250.45 108.31,251.37L108.31,346.44C108.31,347.36 109.05,348.1 109.97,348.1C110.89,348.1 111.63,347.36 111.63,346.44L111.63,251.37C111.63,250.45 110.89,249.71 109.97,249.71Z" style="fill:rgb(58,89,14);fill-rule:nonzero;"/>
                </g>
                <g transform="matrix(1.793379,0,0,1,-77.093694,21.183299)">
                    <path d="M109.97,249.71C109.05,249.71 108.31,250.45 108.31,251.37L108.31,346.44C108.31,347.36 109.05,348.1 109.97,348.1C110.89,348.1 111.63,347.36 111.63,346.44C111.14,315.48 110.97,284.05 111.63,251.37C111.63,250.45 110.89,249.71 109.97,249.71Z" style="fill:rgb(58,89,14);fill-rule:nonzero;"/>
                </g>
            </g>
            <g transform="matrix(0,0.672311,1.487407,-0,-92.4924,28.606861)">
                <g transform="matrix(1.70381,-0,-0,0.49756,-79.713902,125.55944)">
                    <path d="M109.97,249.71C109.05,249.71 108.31,250.45 108.31,251.37L108.31,346.44C108.31,347.36 109.05,348.1 109.97,348.1C110.89,348.1 111.63,347.36 111.63,346.44L111.63,251.37C111.63,250.45 110.89,249.71 109.97,249.71Z" style="fill:rgb(58,89,14);fill-rule:nonzero;"/>
                </g>
                <g transform="matrix(1.70381,-0,-0,0.49756,-66.703447,142.616234)">
                    <path d="M109.97,249.71C109.05,249.71 108.31,250.45 108.31,251.37L108.31,346.44C108.31,347.36 109.05,348.1 109.97,348.1C110.89,348.1 111.63,347.36 111.63,346.44L111.63,251.37C111.63,250.45 110.89,249.71 109.97,249.71Z" style="fill:rgb(58,89,14);fill-rule:nonzero;"/>
                </g>
            </g>
        </g>
        <g transform="matrix(1,0,0,1.073818,1.571299,-25.833517)">
            <ellipse cx="293.46" cy="322.01" rx="6.06" ry="5.5" style="fill:rgb(58,89,14);"/>
        </g>
        <g transform="matrix(0.682073,0,0,0.751673,107.399959,70.223781)">
            <ellipse cx="293.46" cy="322.01" rx="6.06" ry="5.5" style="fill:rgb(58,89,14);"/>
        </g>
        <g transform="matrix(0.682073,0,0,0.751673,84.593686,87.940316)">
            <ellipse cx="293.46" cy="322.01" rx="6.06" ry="5.5" style="fill:rgb(58,89,14);"/>
        </g>
        <g transform="matrix(0.873389,-0.487024,0.522975,0.937861,-210.843491,239.346286)">
            <ellipse cx="293.46" cy="322.01" rx="6.06" ry="5.5" style="fill:rgb(58,89,14);"/>
        </g>
        <g transform="matrix(0.659893,-0.172527,0.190131,0.727229,-30.777926,204.268242)">
            <ellipse cx="293.46" cy="322.01" rx="6.06" ry="5.5" style="fill:rgb(58,89,14);"/>
        </g>
        <g transform="matrix(0.659893,-0.172527,0.190131,0.727229,-48.361265,227.177366)">
            <ellipse cx="293.46" cy="322.01" rx="6.06" ry="5.5" style="fill:rgb(58,89,14);"/>
        </g>
    </g>
    <g transform="matrix(0.983719,0,0,1.018014,-183.953027,-295.622082)">
        <path d="M838.58,452.82L838.58,1108.33C838.58,1194.78 765.95,1264.96 676.49,1264.96L352.32,1264.96C262.86,1264.96 190.23,1194.78 190.23,1108.33L190.23,452.82C190.23,366.37 262.86,296.19 352.32,296.19L676.49,296.19C765.95,296.19 838.58,366.37 838.58,452.82Z" style="fill:none;stroke:rgb(58,89,14);stroke-width:4.16px;"/>
    </g>
</svg>
