<?xml version="1.0" encoding="UTF-8" standalone="no"?>
<!DOCTYPE svg PUBLIC "-//W3C//DTD SVG 1.1//EN" "http://www.w3.org/Graphics/SVG/1.1/DTD/svg11.dtd">
<svg width="100%" height="100%" viewBox="0 0 548 1013" version="1.1" xmlns="http://www.w3.org/2000/svg" xmlns:xlink="http://www.w3.org/1999/xlink" xml:space="preserve" xmlns:serif="http://www.serif.com/" style="fill-rule:evenodd;clip-rule:evenodd;stroke-linecap:round;stroke-linejoin:round;stroke-miterlimit:1.5;">
    <path d="M252.95,916.233C289.826,915.071 325.406,899.867 351.618,876.328C370.16,858.943 381.46,845.742 385.695,836.006C397.688,816.056 403.977,793.437 406.01,768.784C408.089,733.814 405.75,709.224 398.975,695.06C392.928,679.203 385.097,663.766 375.287,648.794C353.102,620.806 332.896,603.905 314.031,594.51C293.711,582.839 274.323,577.225 255.774,577.064C230.281,575.887 193.328,583.884 193.202,583.907C193.076,583.929 160.12,592.942 160.104,593.11C160.087,593.279 135.406,600.101 123.798,604.704C113.457,588.996 96.924,566.129 96.822,565.968C96.72,565.808 66.428,526.709 52.166,514.147L37.466,498.927L17.296,478.093L32.677,463.041C32.677,463.041 273.17,260.507 274.967,257.74C276.764,254.972 293.562,235.693 293.562,235.693L293.525,227.026L282.668,215.01C272.524,204.889 264.329,165.412 257.019,142.188L255.755,132.177C255.619,121.64 257.086,111.549 260.137,101.897C265.846,85.021 274.658,68.086 289.753,51.033C305.091,34.009 321.516,22.747 338.626,15.109C344.956,12.291 354.047,9.259 385.639,4.484C397.369,2.245 410.245,1.314 423.223,0.5C404.826,6.43 387.59,13.252 371.495,20.952C350.134,33.775 336.372,47.842 330.229,63.155C322.355,75.464 318.217,98.262 320.58,133.812C323.207,158.709 336.765,175.596 353.782,188.594L431.805,250.951L431.494,277.512C393.921,288.318 258.589,392.479 141.569,479.153L178.342,523.32C201.427,515.038 225.161,511.196 248.247,511.907C258.914,511.745 275.956,514.286 303.917,517.907C343.059,525.358 376.731,539.433 402.731,562.793C445.318,601.01 472.756,634.28 482.245,661.688C496.527,699.977 503.51,732.237 502.256,757.692C501.821,817.072 488.761,854.288 468.87,879.512L448.443,904.986C452.169,917.604 459.47,925.796 472.275,927.174C485.98,915.717 496.72,901.083 504.374,883.141C510.577,868.755 517.691,845.974 518.707,829.427C522.486,806.71 519.369,790.697 515.76,766.925C534.3,799.791 546.828,831.596 547.423,861.296C547.786,893.39 539.54,922.04 524.071,947.802C520.472,954.813 510.119,974.891 494.274,989.323C479.794,1002.512 460.032,1010.382 450.818,1011.578C439.512,1012.159 430.984,1008.295 425.082,1000.23C421.559,996.78 415.414,982.708 415.114,982.417C414.814,982.125 406.111,973.895 390.131,966.539C395.587,969.952 219.831,1020.16 103.446,957.95C68.457,939.636 45.386,914.278 26.068,887.318C6.042,841.921 -5.466,796.414 3.69,745.613C20.222,688.696 52.746,656.084 96.299,640.237C145.212,625.078 194.371,622.906 243.825,636.387C274.658,647.623 297.564,663.112 306.239,686.238C316.26,718.369 312.96,744.506 301.364,766.909C290.044,709.75 260.014,676.766 204.536,668.67C149.566,662.98 109.613,681.235 84.07,722.464C56.988,765.45 67.937,817.925 111.192,861.296C129.819,882.546 150.103,897.802 171.945,904.986C194.097,915.623 221.153,918.464 252.95,916.239" style="fill:rgb(108,181,45);stroke:rgb(108,181,45);stroke-width:1px;"/>
</svg>
